<mxfile host="app.diagrams.net" modified="2022-12-19T13:17:07.985Z" agent="5.0 (Macintosh; Intel Mac OS X 10_15_7) AppleWebKit/537.36 (KHTML, like Gecko) Chrome/108.0.0.0 Safari/537.36" version="20.7.3" etag="WJBl3MyWaFQVvDfGjZd3" type="github">
  <diagram id="DInUxJy2S2DiqF-2CJz-" name="Pagina-1">
    <mxGraphModel dx="954" dy="616" grid="1" gridSize="10" guides="1" tooltips="1" connect="1" arrows="1" fold="1" page="1" pageScale="1" pageWidth="827" pageHeight="1169" math="0" shadow="0">
      <root>
        <mxCell id="0" />
        <mxCell id="1" parent="0" />
        <mxCell id="OvfeMMl1KjGy2sD2dgxu-4" value="" style="edgeStyle=orthogonalEdgeStyle;rounded=0;orthogonalLoop=1;jettySize=auto;html=1;" edge="1" parent="1" source="OvfeMMl1KjGy2sD2dgxu-1" target="OvfeMMl1KjGy2sD2dgxu-3">
          <mxGeometry relative="1" as="geometry" />
        </mxCell>
        <mxCell id="OvfeMMl1KjGy2sD2dgxu-1" value="INIZIO" style="ellipse;whiteSpace=wrap;html=1;aspect=fixed;" vertex="1" parent="1">
          <mxGeometry x="320" width="80" height="80" as="geometry" />
        </mxCell>
        <mxCell id="OvfeMMl1KjGy2sD2dgxu-2" value="FINE" style="ellipse;whiteSpace=wrap;html=1;aspect=fixed;" vertex="1" parent="1">
          <mxGeometry x="200" y="560" width="80" height="80" as="geometry" />
        </mxCell>
        <mxCell id="OvfeMMl1KjGy2sD2dgxu-14" value="" style="edgeStyle=orthogonalEdgeStyle;rounded=0;orthogonalLoop=1;jettySize=auto;html=1;" edge="1" parent="1" source="OvfeMMl1KjGy2sD2dgxu-3" target="OvfeMMl1KjGy2sD2dgxu-12">
          <mxGeometry relative="1" as="geometry" />
        </mxCell>
        <mxCell id="OvfeMMl1KjGy2sD2dgxu-40" value="" style="edgeStyle=orthogonalEdgeStyle;rounded=0;orthogonalLoop=1;jettySize=auto;html=1;" edge="1" parent="1" source="OvfeMMl1KjGy2sD2dgxu-3" target="OvfeMMl1KjGy2sD2dgxu-39">
          <mxGeometry relative="1" as="geometry" />
        </mxCell>
        <mxCell id="OvfeMMl1KjGy2sD2dgxu-3" value="QUANTI CHILOMETRI&lt;br&gt;HAI PERCORSO?&lt;br&gt;" style="shape=parallelogram;perimeter=parallelogramPerimeter;whiteSpace=wrap;html=1;fixedSize=1;" vertex="1" parent="1">
          <mxGeometry x="140" y="120" width="190" height="60" as="geometry" />
        </mxCell>
        <mxCell id="OvfeMMl1KjGy2sD2dgxu-41" value="" style="edgeStyle=orthogonalEdgeStyle;rounded=0;orthogonalLoop=1;jettySize=auto;html=1;" edge="1" parent="1" source="OvfeMMl1KjGy2sD2dgxu-7" target="OvfeMMl1KjGy2sD2dgxu-18">
          <mxGeometry relative="1" as="geometry" />
        </mxCell>
        <mxCell id="OvfeMMl1KjGy2sD2dgxu-7" value="RISPOSTA&amp;nbsp;&lt;br&gt;CLIENT" style="shape=parallelogram;perimeter=parallelogramPerimeter;whiteSpace=wrap;html=1;fixedSize=1;" vertex="1" parent="1">
          <mxGeometry x="590" y="120" width="120" height="60" as="geometry" />
        </mxCell>
        <mxCell id="OvfeMMl1KjGy2sD2dgxu-53" style="edgeStyle=orthogonalEdgeStyle;rounded=0;orthogonalLoop=1;jettySize=auto;html=1;" edge="1" parent="1" source="OvfeMMl1KjGy2sD2dgxu-8">
          <mxGeometry relative="1" as="geometry">
            <mxPoint x="330" y="380" as="targetPoint" />
          </mxGeometry>
        </mxCell>
        <mxCell id="OvfeMMl1KjGy2sD2dgxu-8" value="RISPOSTA CLIENT&lt;br&gt;*&lt;br&gt;&lt;span style=&quot;color: rgb(209, 210, 211); font-family: Slack-Lato, Slack-Fractions, appleLogo, sans-serif; font-size: 15px; font-variant-ligatures: common-ligatures; text-align: left; background-color: rgba(242, 199, 68, 0.1);&quot;&gt;(0.21 € al km)&lt;/span&gt;&lt;br&gt;" style="rounded=1;whiteSpace=wrap;html=1;" vertex="1" parent="1">
          <mxGeometry x="175" y="300" width="115" height="60" as="geometry" />
        </mxCell>
        <mxCell id="OvfeMMl1KjGy2sD2dgxu-46" style="edgeStyle=orthogonalEdgeStyle;rounded=0;orthogonalLoop=1;jettySize=auto;html=1;entryX=0.5;entryY=0;entryDx=0;entryDy=0;" edge="1" parent="1" source="OvfeMMl1KjGy2sD2dgxu-10" target="OvfeMMl1KjGy2sD2dgxu-2">
          <mxGeometry relative="1" as="geometry" />
        </mxCell>
        <mxCell id="OvfeMMl1KjGy2sD2dgxu-10" value="PREZZO&lt;br&gt;&amp;nbsp;FINALE" style="shape=parallelogram;perimeter=parallelogramPerimeter;whiteSpace=wrap;html=1;fixedSize=1;" vertex="1" parent="1">
          <mxGeometry x="260" y="380" width="120" height="60" as="geometry" />
        </mxCell>
        <mxCell id="OvfeMMl1KjGy2sD2dgxu-38" value="" style="edgeStyle=orthogonalEdgeStyle;rounded=0;orthogonalLoop=1;jettySize=auto;html=1;" edge="1" parent="1" source="OvfeMMl1KjGy2sD2dgxu-12" target="OvfeMMl1KjGy2sD2dgxu-7">
          <mxGeometry relative="1" as="geometry" />
        </mxCell>
        <mxCell id="OvfeMMl1KjGy2sD2dgxu-12" value="QUANTI ANNI HAI?" style="shape=parallelogram;perimeter=parallelogramPerimeter;whiteSpace=wrap;html=1;fixedSize=1;" vertex="1" parent="1">
          <mxGeometry x="380" y="120" width="150" height="60" as="geometry" />
        </mxCell>
        <mxCell id="OvfeMMl1KjGy2sD2dgxu-47" value="NO" style="edgeStyle=orthogonalEdgeStyle;rounded=0;orthogonalLoop=1;jettySize=auto;html=1;exitX=1;exitY=0.5;exitDx=0;exitDy=0;entryX=0.5;entryY=0;entryDx=0;entryDy=0;" edge="1" parent="1" source="OvfeMMl1KjGy2sD2dgxu-18" target="OvfeMMl1KjGy2sD2dgxu-22">
          <mxGeometry relative="1" as="geometry" />
        </mxCell>
        <mxCell id="OvfeMMl1KjGy2sD2dgxu-49" value="SI" style="edgeStyle=orthogonalEdgeStyle;rounded=0;orthogonalLoop=1;jettySize=auto;html=1;entryX=1.008;entryY=0.65;entryDx=0;entryDy=0;entryPerimeter=0;" edge="1" parent="1" source="OvfeMMl1KjGy2sD2dgxu-18" target="OvfeMMl1KjGy2sD2dgxu-20">
          <mxGeometry relative="1" as="geometry" />
        </mxCell>
        <mxCell id="OvfeMMl1KjGy2sD2dgxu-18" value="SE ETà&lt;br&gt;&amp;lt;18" style="rhombus;whiteSpace=wrap;html=1;" vertex="1" parent="1">
          <mxGeometry x="790" y="110" width="80" height="80" as="geometry" />
        </mxCell>
        <mxCell id="OvfeMMl1KjGy2sD2dgxu-54" style="edgeStyle=orthogonalEdgeStyle;rounded=0;orthogonalLoop=1;jettySize=auto;html=1;entryX=0.75;entryY=0;entryDx=0;entryDy=0;" edge="1" parent="1" source="OvfeMMl1KjGy2sD2dgxu-20" target="OvfeMMl1KjGy2sD2dgxu-10">
          <mxGeometry relative="1" as="geometry" />
        </mxCell>
        <mxCell id="OvfeMMl1KjGy2sD2dgxu-20" value="APPLICARE&lt;br&gt;SCONTO&lt;br&gt;20% SUL PREZZO&lt;br&gt;FINALE" style="whiteSpace=wrap;html=1;" vertex="1" parent="1">
          <mxGeometry x="670" y="240" width="120" height="60" as="geometry" />
        </mxCell>
        <mxCell id="OvfeMMl1KjGy2sD2dgxu-55" value="" style="edgeStyle=orthogonalEdgeStyle;rounded=0;orthogonalLoop=1;jettySize=auto;html=1;" edge="1" parent="1" source="OvfeMMl1KjGy2sD2dgxu-22" target="OvfeMMl1KjGy2sD2dgxu-24">
          <mxGeometry relative="1" as="geometry" />
        </mxCell>
        <mxCell id="OvfeMMl1KjGy2sD2dgxu-22" value="ALTRIMENTI&lt;br&gt;RICALCOLA" style="whiteSpace=wrap;html=1;" vertex="1" parent="1">
          <mxGeometry x="860" y="260" width="90" height="60" as="geometry" />
        </mxCell>
        <mxCell id="OvfeMMl1KjGy2sD2dgxu-56" value="" style="edgeStyle=orthogonalEdgeStyle;rounded=0;orthogonalLoop=1;jettySize=auto;html=1;" edge="1" parent="1" source="OvfeMMl1KjGy2sD2dgxu-24" target="OvfeMMl1KjGy2sD2dgxu-26">
          <mxGeometry relative="1" as="geometry" />
        </mxCell>
        <mxCell id="OvfeMMl1KjGy2sD2dgxu-58" style="edgeStyle=orthogonalEdgeStyle;rounded=0;orthogonalLoop=1;jettySize=auto;html=1;entryX=0.996;entryY=0.617;entryDx=0;entryDy=0;entryPerimeter=0;" edge="1" parent="1" source="OvfeMMl1KjGy2sD2dgxu-24" target="OvfeMMl1KjGy2sD2dgxu-28">
          <mxGeometry relative="1" as="geometry" />
        </mxCell>
        <mxCell id="OvfeMMl1KjGy2sD2dgxu-24" value="SE ETà&lt;br&gt;&amp;gt;=65" style="rhombus;whiteSpace=wrap;html=1;" vertex="1" parent="1">
          <mxGeometry x="862.5" y="360" width="85" height="80" as="geometry" />
        </mxCell>
        <mxCell id="OvfeMMl1KjGy2sD2dgxu-60" style="edgeStyle=orthogonalEdgeStyle;rounded=0;orthogonalLoop=1;jettySize=auto;html=1;entryX=1;entryY=0.75;entryDx=0;entryDy=0;" edge="1" parent="1" source="OvfeMMl1KjGy2sD2dgxu-26" target="OvfeMMl1KjGy2sD2dgxu-10">
          <mxGeometry relative="1" as="geometry" />
        </mxCell>
        <mxCell id="OvfeMMl1KjGy2sD2dgxu-26" value="APPLICARE SCONTO DEL 40%&lt;br&gt;SUL PREZZO FINALE" style="whiteSpace=wrap;html=1;" vertex="1" parent="1">
          <mxGeometry x="520" y="370" width="120" height="60" as="geometry" />
        </mxCell>
        <mxCell id="OvfeMMl1KjGy2sD2dgxu-59" style="edgeStyle=orthogonalEdgeStyle;rounded=0;orthogonalLoop=1;jettySize=auto;html=1;entryX=0.692;entryY=1;entryDx=0;entryDy=0;entryPerimeter=0;" edge="1" parent="1" source="OvfeMMl1KjGy2sD2dgxu-28" target="OvfeMMl1KjGy2sD2dgxu-10">
          <mxGeometry relative="1" as="geometry" />
        </mxCell>
        <mxCell id="OvfeMMl1KjGy2sD2dgxu-28" value="NESSUNO SCONTO" style="whiteSpace=wrap;html=1;" vertex="1" parent="1">
          <mxGeometry x="690" y="560" width="172.5" height="60" as="geometry" />
        </mxCell>
        <mxCell id="OvfeMMl1KjGy2sD2dgxu-44" value="" style="edgeStyle=orthogonalEdgeStyle;rounded=0;orthogonalLoop=1;jettySize=auto;html=1;" edge="1" parent="1" source="OvfeMMl1KjGy2sD2dgxu-39" target="OvfeMMl1KjGy2sD2dgxu-8">
          <mxGeometry relative="1" as="geometry" />
        </mxCell>
        <mxCell id="OvfeMMl1KjGy2sD2dgxu-39" value="RISPOSTA&amp;nbsp;&lt;br&gt;CLIENT" style="shape=parallelogram;perimeter=parallelogramPerimeter;whiteSpace=wrap;html=1;fixedSize=1;" vertex="1" parent="1">
          <mxGeometry x="175" y="210" width="120" height="60" as="geometry" />
        </mxCell>
      </root>
    </mxGraphModel>
  </diagram>
</mxfile>
